<svg width="24" height="24" viewBox="0 0 24 24" fill="none" xmlns="http://www.w3.org/2000/svg">
<path fill-rule="evenodd" clip-rule="evenodd" d="M9.89754 0.515652C11.2085 -0.171884 12.7915 -0.171884 14.1025 0.515652L21.7025 4.50154C23.1185 5.2442 24 6.674 24 8.22823V15.7718C24 17.326 23.1185 18.7558 21.7025 19.4985L14.1025 23.4843C12.7915 24.1719 11.2085 24.1719 9.89754 23.4843L2.29754 19.4985C0.881489 18.7558 0 17.326 0 15.7718L0 8.22823C0 6.674 0.881487 5.2442 2.29754 4.50154L9.89754 0.515652Z" fill="#F7931A"/>
<path d="M12.4199 22.3559C17.9074 22.3559 22.3559 17.9074 22.3559 12.4199C22.3559 6.93242 17.9074 2.48392 12.4199 2.48392C6.93238 2.48392 2.48389 6.93242 2.48389 12.4199C2.48389 17.9074 6.93238 22.3559 12.4199 22.3559Z" fill="#F7931A"/>
<path d="M16.7868 11.1903C16.9818 9.88867 15.99 9.18881 14.635 8.72181L15.0747 6.95817L14.0016 6.69114L13.5731 8.40821C13.2912 8.33742 13.0018 8.27159 12.713 8.20576L13.1446 6.47752L12.0715 6.20987L11.6319 7.97289C11.3984 7.91948 11.1686 7.86732 10.9463 7.81143L10.9475 7.80584L9.46705 7.43634L9.18139 8.58271C9.18139 8.58271 9.97813 8.76528 9.96137 8.77646C10.3961 8.88514 10.4743 9.17266 10.4613 9.40119L9.96074 11.4101C9.99055 11.4176 10.0291 11.4288 10.0725 11.4455L9.95888 11.4176L9.25715 14.2319C9.20375 14.3636 9.06899 14.5617 8.7647 14.4866C8.77588 14.5021 7.98472 14.2922 7.98472 14.2922L7.4519 15.5205L8.84915 15.8689C9.10873 15.9341 9.36334 16.0024 9.61361 16.0664L9.16959 17.8499L10.2421 18.1169L10.6817 16.3533C10.9748 16.4321 11.2593 16.5054 11.5375 16.575L11.099 18.3312L12.1721 18.5982L12.6161 16.8184C14.4468 17.1649 15.823 17.0252 16.4024 15.3696C16.8694 14.037 16.3794 13.2675 15.4162 12.7664C16.118 12.6049 16.6458 12.1435 16.7868 11.1903ZM14.3338 14.6294C14.0028 15.9627 11.7579 15.2417 11.0301 15.061L11.6201 12.6981C12.3479 12.88 14.681 13.2396 14.3338 14.6294ZM14.6661 11.171C14.3636 12.3839 12.4957 11.7672 11.8902 11.6163L12.4243 9.47385C13.0297 9.62475 14.9815 9.90606 14.6661 11.171Z" fill="white"/>
</svg>
