<svg width="48" height="48" viewBox="0 0 48 48" fill="none" xmlns="http://www.w3.org/2000/svg">
<path fill-rule="evenodd" clip-rule="evenodd" d="M19.9457 1.0313C22.4736 -0.343768 25.5263 -0.343768 28.0542 1.0313L42.7096 9.00307C45.4402 10.4884 47.14 13.348 47.14 16.4565V31.5435C47.14 34.652 45.4402 37.5116 42.7096 38.9969L28.0542 46.9687C25.5263 48.3438 22.4736 48.3438 19.9457 46.9687L5.29033 38.9969C2.5597 37.5116 0.859894 34.652 0.859894 31.5435L0.859894 16.4565C0.859894 13.348 2.5597 10.4884 5.29033 9.00307L19.9457 1.0313Z" fill="#F7931A"/>
<g clip-path="url(#clip0_1_408)">
<path d="M24.0002 43.2002C34.6041 43.2002 43.2002 34.6041 43.2002 24.0002C43.2002 13.3963 34.6041 4.80019 24.0002 4.80019C13.3963 4.80019 4.8002 13.3963 4.8002 24.0002C4.8002 34.6041 13.3963 43.2002 24.0002 43.2002Z" fill="#F7931A"/>
<path d="M32.4385 21.624C32.8153 19.1088 30.8989 17.7564 28.2805 16.854L29.1301 13.446L27.0565 12.93L26.2285 16.248C25.6837 16.1112 25.1245 15.984 24.5665 15.8568L25.4005 12.5172L23.3269 12L22.4773 15.4068C22.0261 15.3036 21.5821 15.2028 21.1525 15.0948L21.1549 15.084L18.2941 14.37L17.7421 16.5852C17.7421 16.5852 19.2817 16.938 19.2493 16.9596C20.0893 17.1696 20.2405 17.7252 20.2153 18.1668L19.2481 22.0488C19.3057 22.0632 19.3801 22.0848 19.4641 22.1172L19.2445 22.0632L17.8885 27.5016C17.7853 27.756 17.5249 28.1388 16.9369 27.9936C16.9585 28.0236 15.4297 27.618 15.4297 27.618L14.4001 29.9916L17.1001 30.6648C17.6017 30.7908 18.0937 30.9228 18.5773 31.0464L17.7193 34.4928L19.7917 35.0088L20.6413 31.6008C21.2077 31.7532 21.7573 31.8948 22.2949 32.0292L21.4477 35.4228L23.5213 35.9388L24.3793 32.4996C27.9169 33.1692 30.5761 32.8992 31.6957 29.7C32.5981 27.1248 31.6513 25.638 29.7901 24.6696C31.1461 24.3576 32.1661 23.466 32.4385 21.624ZM27.6985 28.2696C27.0589 30.846 22.7209 29.4528 21.3145 29.1036L22.4545 24.5376C23.8609 24.8892 28.3693 25.584 27.6985 28.2696ZM28.3405 21.5868C27.7561 23.9304 24.1465 22.7388 22.9765 22.4472L24.0085 18.3072C25.1785 18.5988 28.9501 19.1424 28.3405 21.5868Z" fill="white"/>
</g>
<defs>
<clipPath id="clip0_1_408">
<rect width="38.4" height="38.4" fill="white" transform="translate(4.8002 4.80019)"/>
</clipPath>
</defs>
</svg>
