<svg width="48" height="48" viewBox="0 0 48 48" fill="none" xmlns="http://www.w3.org/2000/svg">
<path fill-rule="evenodd" clip-rule="evenodd" d="M19.9457 1.0313C22.4736 -0.343768 25.5263 -0.343768 28.0542 1.0313L42.7096 9.00307C45.4402 10.4884 47.14 13.348 47.14 16.4565V31.5435C47.14 34.652 45.4402 37.5116 42.7096 38.9969L28.0542 46.9687C25.5263 48.3438 22.4736 48.3438 19.9457 46.9687L5.29033 38.9969C2.5597 37.5116 0.859894 34.652 0.859894 31.5435L0.859894 16.4565C0.859894 13.348 2.5597 10.4884 5.29033 9.00307L19.9457 1.0313Z" fill="#627EEA"/>
<g clip-path="url(#clip0_1_390)">
<path d="M24.0002 43.2002C34.6041 43.2002 43.2002 34.6041 43.2002 24.0002C43.2002 13.3963 34.6041 4.80019 24.0002 4.80019C13.3963 4.80019 4.8002 13.3963 4.8002 24.0002C4.8002 34.6041 13.3963 43.2002 24.0002 43.2002Z" fill="#627EEA"/>
<path d="M24.0005 9.60037V20.2444L32.9969 24.2644L24.0005 9.60037Z" fill="white" fill-opacity="0.602"/>
<path d="M24.598 9.60037L15.6004 24.2644L24.598 20.2444V9.60037Z" fill="white"/>
<path d="M24.0005 31.623V38.8554L33.0029 26.4006L24.0005 31.623Z" fill="white" fill-opacity="0.602"/>
<path d="M24.598 38.8554V31.6218L15.6004 26.4006L24.598 38.8554Z" fill="white"/>
<path d="M24.0005 29.6418L32.9969 24.4182L24.0005 20.4006V29.6418Z" fill="white" fill-opacity="0.2"/>
<path d="M15.6004 24.4182L24.598 29.6418V20.4006L15.6004 24.4182Z" fill="white" fill-opacity="0.602"/>
</g>
<defs>
<clipPath id="clip0_1_390">
<rect width="38.4" height="38.4" fill="white" transform="translate(4.8002 4.80019)"/>
</clipPath>
</defs>
</svg>
