<svg width="24" height="24" viewBox="0 0 24 24" fill="none" xmlns="http://www.w3.org/2000/svg">
<path fill-rule="evenodd" clip-rule="evenodd" d="M9.89729 0.515652C11.2082 -0.171884 12.7913 -0.171884 14.1022 0.515652L21.7022 4.50154C23.1183 5.2442 23.9998 6.674 23.9998 8.22823V15.7718C23.9998 17.326 23.1183 18.7558 21.7022 19.4985L14.1022 23.4843C12.7913 24.1719 11.2082 24.1719 9.89729 23.4843L2.2973 19.4985C0.881244 18.7558 -0.000244141 17.326 -0.000244141 15.7718L-0.000244141 8.22823C-0.000244141 6.674 0.881243 5.2442 2.29729 4.50154L9.89729 0.515652Z" fill="#2A5ADA"/>
<path d="M13.01 16.104C13.5753 16.104 14.066 15.9653 14.482 15.688C14.9087 15.4107 15.2233 15.0107 15.426 14.488L16.354 15.016C16.0767 15.7093 15.6447 16.248 15.058 16.632C14.482 17.0053 13.7993 17.192 13.01 17.192C11.8473 17.192 10.898 16.7973 10.162 16.008C9.426 15.208 8.962 14.12 8.77 12.744H7.57V11.816H8.69V11.4C8.69 11.1547 8.69533 10.9733 8.706 10.856H7.57V9.928H8.802C8.994 8.59467 9.458 7.544 10.194 6.776C10.93 5.99733 11.8687 5.608 13.01 5.608C13.7993 5.608 14.482 5.8 15.058 6.184C15.6447 6.55733 16.0767 7.08533 16.354 7.768L15.426 8.296C14.978 7.22933 14.1727 6.696 13.01 6.696C12.1993 6.696 11.522 6.97867 10.978 7.544C10.4447 8.09867 10.0927 8.89333 9.922 9.928H13.97V10.856H9.826C9.81533 10.9733 9.81 11.1547 9.81 11.4C9.81 11.592 9.81533 11.7307 9.826 11.816H13.97V12.744H9.906C10.066 13.8213 10.4127 14.6533 10.946 15.24C11.49 15.816 12.178 16.104 13.01 16.104Z" fill="white"/>
</svg>
