<svg width="196" height="28" viewBox="0 0 196 28" fill="none" xmlns="http://www.w3.org/2000/svg">
<g clip-path="url(#clip0_1_784)">
<path d="M67.6682 18.6313C67.8206 18.63 67.9714 18.662 68.1108 18.7249C68.2452 18.7864 68.3679 18.8717 68.4736 18.9767C68.5792 19.0826 68.6637 19.2085 68.7225 19.3475C68.7836 19.4936 68.8146 19.6511 68.8137 19.81C68.8126 19.9681 68.7804 20.1242 68.719 20.2691C68.6576 20.414 68.5684 20.5446 68.4566 20.6531C66.9243 21.945 65.0003 22.6452 63.0182 22.6321C61.8816 22.6331 60.7561 22.4039 59.7059 21.9575C58.6556 21.5111 57.7014 20.8563 56.8978 20.0307C56.0941 19.205 55.4568 18.2246 55.0223 17.1456C54.5879 16.0666 54.3648 14.9101 54.3658 13.7424C54.3688 11.3859 55.2814 9.12676 56.9034 7.4606C58.5255 5.79445 60.7245 4.8573 63.0182 4.85472C65.0484 4.84817 67.0146 5.58427 68.5648 6.93125C68.6679 7.03722 68.7482 7.16423 68.8006 7.30407C68.8529 7.44392 68.8762 7.59349 68.8688 7.74313C68.8701 7.90303 68.8404 8.06159 68.7814 8.20957C68.7249 8.34902 68.6423 8.47569 68.5382 8.58233C68.4334 8.69067 68.3079 8.7757 68.1697 8.83213C67.9631 8.92079 67.7356 8.94493 67.5157 8.90155C67.2957 8.85816 67.0931 8.74917 66.9331 8.58818C66.389 8.14559 65.7764 7.79991 65.121 7.56553C64.4446 7.32609 63.7336 7.206 63.0182 7.21033C62.1832 7.20982 61.3563 7.37844 60.5849 7.70655C59.8134 8.03466 59.1124 8.51582 58.5221 9.12251C57.9318 9.7292 57.4637 10.4495 57.1445 11.2422C56.8254 12.035 56.6616 12.8846 56.6623 13.7424C56.6625 14.9739 57.0014 16.1802 57.6398 17.2225C58.2782 18.2647 59.1902 19.1005 60.2707 19.6334C61.3512 20.1664 62.5564 20.3749 63.7472 20.2349C64.938 20.0948 66.0661 19.612 67.0015 18.842C67.1988 18.7062 67.4307 18.6329 67.6682 18.6313Z" fill="#1A1C1E"/>
<path d="M73.2738 11.3439V11.5644C73.8031 11.1275 74.3986 10.7827 75.0366 10.5437C75.6885 10.3034 76.3765 10.1832 77.0691 10.1885C77.4107 10.1897 77.752 10.2119 78.091 10.2549C78.4346 10.2932 78.7725 10.3732 79.0978 10.493C79.3803 10.5943 79.6391 10.7552 79.8576 10.9653C79.9587 11.0662 80.038 11.1879 80.0904 11.3224C80.1428 11.4569 80.167 11.6012 80.1615 11.7459C80.1621 11.9025 80.1303 12.0575 80.0684 12.2007C80.0092 12.3386 79.9269 12.4647 79.8253 12.5734C79.7238 12.6805 79.6023 12.7654 79.4682 12.8232C79.3278 12.8825 79.1773 12.9123 79.0256 12.911C78.8604 12.9039 78.6983 12.8627 78.5488 12.79C78.0767 12.6009 77.5738 12.5061 77.0672 12.511C76.5581 12.5081 76.0538 12.6123 75.5855 12.8174C75.1359 13.0135 74.7271 13.2964 74.3812 13.6507C74.0353 14.006 73.7599 14.4269 73.5701 14.89C73.3693 15.3708 73.2677 15.8891 73.2719 16.4123V21.4865C73.2714 21.7929 73.1528 22.0867 72.9421 22.3036C72.7313 22.5205 72.4456 22.6428 72.1474 22.6438C71.9976 22.6468 71.8489 22.6183 71.7104 22.5599C71.5718 22.5015 71.4464 22.4144 71.342 22.3042C71.2353 22.1984 71.1509 22.0713 71.0941 21.9306C71.0372 21.7899 71.0091 21.6388 71.0114 21.4865V11.3439C71.0471 11.0618 71.1815 10.8027 71.3895 10.615C71.5974 10.4273 71.8648 10.3238 72.1417 10.3238C72.4185 10.3238 72.6859 10.4273 72.8939 10.615C73.1018 10.8027 73.2362 11.0618 73.2719 11.3439H73.2738Z" fill="#1A1C1E"/>
<path d="M86.0825 21.4747L82.1903 11.8649C82.1193 11.7009 82.0824 11.5234 82.082 11.3438C82.0814 11.1911 82.1105 11.0399 82.1675 10.8989C82.224 10.7608 82.3045 10.6345 82.405 10.5261C82.5063 10.4189 82.6278 10.3339 82.7621 10.2763C82.9347 10.2052 83.1213 10.1776 83.3064 10.196C83.4915 10.2143 83.6696 10.278 83.8258 10.3817C84.0271 10.521 84.1816 10.7207 84.2684 10.9535L87.3077 18.4087L90.3469 10.932C90.4261 10.7218 90.557 10.5362 90.7269 10.3934C90.9282 10.242 91.1751 10.1687 91.424 10.1865C91.5757 10.1852 91.7262 10.2151 91.8666 10.2743C92.0011 10.3314 92.1227 10.4165 92.2237 10.5242C92.3253 10.6328 92.4076 10.759 92.4668 10.8969C92.5275 11.0369 92.5586 11.1886 92.558 11.3419C92.5546 11.5221 92.5145 11.6996 92.4402 11.863L86.2211 27.1852C86.131 27.4096 85.9817 27.6036 85.79 27.7453C85.5747 27.9044 85.3116 27.9799 85.0472 27.9585C84.7829 27.9371 84.5346 27.82 84.3463 27.6282C84.2411 27.5186 84.1586 27.3883 84.1037 27.2451C84.0489 27.1019 84.0228 26.9487 84.0272 26.7949C84.027 26.6184 84.0639 26.444 84.1354 26.2835L86.0825 21.4747Z" fill="#1A1C1E"/>
<path d="M100.935 22.6321C99.5505 22.6572 98.2029 22.1726 97.1359 21.266V26.8105C97.1402 26.9646 97.113 27.1178 97.0561 27.2603C96.9992 27.4029 96.9137 27.5316 96.8053 27.638C96.6992 27.7451 96.5732 27.8293 96.4349 27.8856C96.2966 27.9419 96.1487 27.9692 95.9999 27.9659C95.8511 27.9705 95.7028 27.9438 95.5644 27.8873C95.4259 27.8309 95.3002 27.7459 95.1948 27.6377C95.0895 27.5295 95.0068 27.4003 94.9519 27.2581C94.897 27.1158 94.8709 26.9635 94.8754 26.8105V16.4103C94.8891 14.9769 95.3823 13.5921 96.2723 12.4881C97.1622 11.3841 98.3947 10.6283 99.7628 10.3475C101.131 10.0667 102.552 10.278 103.786 10.9459C105.02 11.6138 105.994 12.6977 106.542 14.0157C106.848 14.7748 107.003 15.5888 107 16.4103C107.016 17.2296 106.866 18.0433 106.561 18.8004C106.255 19.5574 105.801 20.2413 105.226 20.8093C104.661 21.3929 103.991 21.857 103.252 22.1754C102.517 22.4837 101.729 22.6389 100.935 22.6321ZM97.1359 16.4103C97.1331 16.9294 97.234 17.4435 97.4322 17.9209C97.6225 18.3823 97.8957 18.8027 98.2376 19.1602C98.5823 19.5152 98.9897 19.7994 99.4381 19.9974C99.9084 20.203 100.414 20.309 100.925 20.309C101.437 20.309 101.942 20.203 102.413 19.9974C102.863 19.7982 103.272 19.512 103.617 19.1543C103.961 18.7969 104.237 18.3766 104.43 17.915C104.626 17.4385 104.726 16.9265 104.726 16.4093C104.726 15.8922 104.626 15.3802 104.43 14.9037C104.237 14.4421 103.961 14.0218 103.617 13.6644C103.272 13.3067 102.863 13.0205 102.413 12.8213C101.942 12.6157 101.437 12.5097 100.925 12.5097C100.414 12.5097 99.9084 12.6157 99.4381 12.8213C98.9897 13.0193 98.5823 13.3035 98.2376 13.6585C97.8957 14.0159 97.6225 14.4364 97.4322 14.8978C97.2351 15.3762 97.1356 15.8909 97.1397 16.4103H97.1359Z" fill="#1A1C1E"/>
<path d="M110.444 10.1866H110.953V6.01009C110.951 5.85784 110.979 5.70675 111.036 5.56612C111.093 5.42549 111.177 5.2983 111.284 5.19236C111.497 4.97663 111.784 4.85571 112.083 4.85571C112.383 4.85571 112.67 4.97663 112.883 5.19236C112.989 5.2983 113.074 5.42549 113.131 5.56612C113.187 5.70675 113.216 5.85784 113.214 6.01009V10.1866H114.564C114.711 10.1834 114.858 10.2118 114.994 10.27C115.13 10.3281 115.253 10.4147 115.354 10.5242C115.459 10.6308 115.542 10.7583 115.598 10.8989C115.654 11.0394 115.682 11.1902 115.679 11.3419C115.682 11.4953 115.655 11.6476 115.599 11.7898C115.543 11.932 115.46 12.0612 115.354 12.1694C115.253 12.279 115.13 12.3655 114.994 12.4237C114.858 12.4818 114.711 12.5102 114.564 12.5071H113.214V18.0965C113.214 19.5707 113.934 20.3077 115.375 20.3077C115.522 20.3051 115.669 20.3337 115.805 20.3918C115.941 20.4499 116.063 20.5362 116.165 20.6453C116.376 20.8645 116.494 21.16 116.494 21.468C116.494 21.7759 116.376 22.0714 116.165 22.2906C116.064 22.4004 115.941 22.4872 115.805 22.5457C115.669 22.6041 115.523 22.6329 115.375 22.6302C112.427 22.6302 110.953 21.1189 110.953 18.0965V12.509H110.444C110.298 12.5109 110.153 12.482 110.019 12.4239C109.884 12.3658 109.762 12.2798 109.661 12.1714C109.554 12.064 109.469 11.9352 109.413 11.7929C109.356 11.6505 109.328 11.4977 109.331 11.3439C109.329 11.1916 109.357 11.0404 109.414 10.8998C109.47 10.7591 109.555 10.632 109.661 10.5262C109.762 10.4174 109.884 10.331 110.018 10.2726C110.153 10.2142 110.298 10.1849 110.444 10.1866Z" fill="#1A1C1E"/>
<path d="M130.175 16.4103C130.19 17.2296 130.04 18.0433 129.735 18.8003C129.43 19.5573 128.975 20.2413 128.4 20.8092C127.265 21.9762 125.724 22.6318 124.118 22.6318C122.512 22.6318 120.971 21.9762 119.835 20.8092C118.7 19.6423 118.061 18.0596 118.061 16.4093C118.061 14.759 118.7 13.1763 119.835 12.0094C120.972 10.8432 122.512 10.1882 124.118 10.1882C125.724 10.1882 127.264 10.8432 128.4 12.0094C128.971 12.5812 129.423 13.2656 129.73 14.0215C130.026 14.7811 130.177 15.5921 130.175 16.4103ZM124.119 12.507C123.605 12.5024 123.097 12.6088 122.626 12.8193C122.177 13.0173 121.77 13.3015 121.425 13.6565C121.083 14.0139 120.81 14.4344 120.62 14.8958C120.424 15.3744 120.323 15.8883 120.323 16.4073C120.323 16.9264 120.424 17.4403 120.62 17.9189C120.81 18.3803 121.083 18.8007 121.425 19.1582C121.77 19.5132 122.177 19.7974 122.626 19.9954C123.096 20.201 123.602 20.307 124.113 20.307C124.624 20.307 125.13 20.201 125.6 19.9954C126.051 19.7962 126.46 19.51 126.805 19.1523C127.149 18.7953 127.424 18.3749 127.616 17.913C127.813 17.4368 127.914 16.9247 127.914 16.4073C127.914 15.89 127.813 15.3779 127.616 14.9017C127.424 14.4398 127.149 14.0194 126.805 13.6624C126.46 13.3047 126.051 13.0185 125.6 12.8193C125.133 12.6103 124.628 12.5046 124.119 12.509V12.507Z" fill="#1A1C1E"/>
<path d="M145.879 18.6313C146.031 18.63 146.182 18.662 146.321 18.7249C146.456 18.7864 146.578 18.8717 146.684 18.9767C146.79 19.0826 146.874 19.2085 146.933 19.3475C146.994 19.4936 147.025 19.6511 147.024 19.81C147.023 19.9681 146.991 20.1242 146.929 20.2691C146.868 20.414 146.779 20.5446 146.667 20.6531C145.135 21.945 143.211 22.6452 141.229 22.6321C140.092 22.6334 138.966 22.4043 137.916 21.958C136.866 21.5117 135.912 20.8569 135.108 20.0311C134.305 19.2054 133.668 18.2248 133.233 17.1457C132.799 16.0666 132.577 14.9101 132.578 13.7424C132.58 11.3859 133.492 9.12647 135.114 7.46015C136.736 5.79383 138.935 4.85679 141.229 4.85472C143.259 4.84817 145.225 5.58427 146.775 6.93125C146.878 7.03722 146.959 7.16423 147.011 7.30407C147.063 7.44392 147.087 7.59349 147.079 7.74313C147.08 7.90303 147.051 8.06159 146.992 8.20957C146.935 8.34902 146.853 8.47569 146.749 8.58233C146.644 8.69067 146.518 8.7757 146.38 8.83213C146.173 8.92079 145.946 8.94493 145.726 8.90155C145.506 8.85816 145.304 8.74917 145.144 8.58818C144.599 8.14559 143.987 7.79991 143.331 7.56553C142.655 7.32609 141.944 7.206 141.229 7.21033C140.393 7.20931 139.566 7.37755 138.794 7.70543C138.022 8.03331 137.321 8.51439 136.73 9.12113C136.139 9.72787 135.671 10.4484 135.352 11.2413C135.032 12.0343 134.868 12.8842 134.869 13.7424C134.869 14.9739 135.208 16.1802 135.846 17.2225C136.485 18.2647 137.397 19.1005 138.477 19.6334C139.558 20.1664 140.763 20.3749 141.954 20.2349C143.145 20.0948 144.273 19.612 145.208 18.842C145.407 18.7054 145.64 18.6321 145.879 18.6313Z" fill="#1A1C1E"/>
<path d="M149.159 21.4747V6.02175C149.156 5.86863 149.182 5.71637 149.237 5.57394C149.292 5.4315 149.374 5.30175 149.478 5.19231C149.693 4.97585 149.983 4.85461 150.284 4.85461C150.585 4.85461 150.874 4.97585 151.089 5.19231C151.193 5.30175 151.275 5.4315 151.33 5.57394C151.385 5.71637 151.411 5.86863 151.408 6.02175V20.3096H151.925C152.199 20.3463 152.452 20.4843 152.634 20.698C152.817 20.9117 152.918 21.1864 152.918 21.4708C152.918 21.7553 152.817 22.03 152.634 22.2437C152.452 22.4574 152.199 22.5954 151.925 22.6321H150.272C150.125 22.6345 149.979 22.6056 149.843 22.5472C149.708 22.4887 149.585 22.402 149.484 22.2925C149.379 22.1858 149.296 22.0584 149.24 21.9178C149.184 21.7773 149.157 21.6265 149.159 21.4747Z" fill="#1A1C1E"/>
<path d="M167.233 16.4103C167.249 17.2294 167.099 18.043 166.794 18.7999C166.489 19.5569 166.035 20.241 165.461 20.8093C164.899 21.3871 164.231 21.8455 163.496 22.1582C162.761 22.4709 161.974 22.6318 161.178 22.6318C160.383 22.6318 159.596 22.4709 158.861 22.1582C158.126 21.8455 157.458 21.3871 156.896 20.8093C156.334 20.2315 155.887 19.5455 155.583 18.7906C155.279 18.0356 155.122 17.2265 155.122 16.4094C155.122 15.5922 155.279 14.7831 155.583 14.0281C155.887 13.2732 156.334 12.5872 156.896 12.0094C158.032 10.8433 159.572 10.1882 161.178 10.1882C162.784 10.1882 164.325 10.8433 165.461 12.0094C166.032 12.5813 166.484 13.2657 166.791 14.0215C167.087 14.781 167.237 15.5922 167.233 16.4103ZM161.177 12.5071C160.665 12.5027 160.157 12.6091 159.686 12.8193C159.238 13.0169 158.83 13.3012 158.486 13.6566C158.144 14.014 157.871 14.4344 157.68 14.8959C157.484 15.3742 157.382 15.8881 157.382 16.4074C157.382 16.9267 157.484 17.4407 157.68 17.9189C157.871 18.3804 158.144 18.8008 158.486 19.1582C158.83 19.5137 159.238 19.7979 159.686 19.9955C160.156 20.2016 160.662 20.3078 161.173 20.3078C161.684 20.3078 162.189 20.2016 162.659 19.9955C163.11 19.7963 163.519 19.5101 163.865 19.1524C164.209 18.7949 164.484 18.3745 164.676 17.9131C164.873 17.4369 164.975 16.9248 164.975 16.4074C164.975 15.89 164.873 15.378 164.676 14.9017C164.484 14.4403 164.209 14.02 163.865 13.6624C163.519 13.3047 163.11 13.0185 162.659 12.8193C162.192 12.6104 161.687 12.5046 161.177 12.509V12.5071Z" fill="#1A1C1E"/>
<path d="M179.772 22.6321C179.623 22.6371 179.476 22.6099 179.338 22.5525C179.2 22.495 179.076 22.4084 178.972 22.2983C178.766 22.0812 178.649 21.7901 178.648 21.4865C178.176 21.8719 177.642 22.1674 177.069 22.3588C176.484 22.5453 175.875 22.6375 175.263 22.6321C174.511 22.6361 173.767 22.4786 173.078 22.1695C171.725 21.5734 170.648 20.466 170.067 19.0762C169.767 18.3685 169.613 17.604 169.617 16.8318V11.3438C169.653 11.0618 169.787 10.8027 169.995 10.615C170.203 10.4273 170.471 10.3237 170.747 10.3237C171.024 10.3237 171.292 10.4273 171.5 10.615C171.708 10.8027 171.842 11.0618 171.878 11.3438V16.8318C171.875 17.2973 171.965 17.7584 172.144 18.1863C172.485 19.0212 173.132 19.6854 173.944 20.0364C174.36 20.2167 174.807 20.3096 175.258 20.3096C175.709 20.3096 176.156 20.2167 176.571 20.0364C176.975 19.8598 177.342 19.6054 177.652 19.287C177.961 18.9691 178.209 18.5944 178.384 18.1824C178.56 17.7555 178.65 17.2958 178.648 16.8318V11.3438C178.683 11.0618 178.818 10.8027 179.026 10.615C179.234 10.4273 179.501 10.3237 179.778 10.3237C180.055 10.3237 180.322 10.4273 180.53 10.615C180.738 10.8027 180.872 11.0618 180.908 11.3438V21.4747C180.91 21.627 180.882 21.7782 180.825 21.9189C180.769 22.0595 180.684 22.1867 180.578 22.2925C180.473 22.4027 180.348 22.4897 180.209 22.5481C180.071 22.6065 179.922 22.6351 179.772 22.6321Z" fill="#1A1C1E"/>
<path d="M189.325 10.1865C190.709 10.1668 192.054 10.6507 193.124 11.5527V6.01006C193.119 5.85695 193.145 5.7044 193.199 5.56189C193.254 5.41937 193.337 5.28994 193.442 5.1816C193.548 5.07327 193.674 4.98835 193.812 4.93212C193.951 4.87589 194.1 4.84953 194.249 4.8547C194.397 4.85138 194.545 4.87868 194.684 4.93499C194.822 4.9913 194.948 5.07548 195.054 5.18257C195.162 5.28945 195.247 5.41824 195.303 5.56072C195.36 5.7032 195.387 5.85624 195.383 6.01006V16.4103C195.398 17.2294 195.248 18.0429 194.943 18.7999C194.638 19.5568 194.185 20.2409 193.61 20.8093C193.048 21.3871 192.38 21.8454 191.645 22.1581C190.911 22.4708 190.123 22.6318 189.328 22.6318C188.532 22.6318 187.745 22.4708 187.01 22.1581C186.275 21.8454 185.608 21.3871 185.045 20.8093C184.483 20.2314 184.037 19.5455 183.732 18.7905C183.428 18.0356 183.271 17.2265 183.271 16.4093C183.271 15.5922 183.428 14.783 183.732 14.0281C184.037 13.2731 184.483 12.5872 185.045 12.0094C185.6 11.4214 186.265 10.9564 187.001 10.6429C187.738 10.3294 188.528 10.1741 189.325 10.1865ZM193.124 16.4083C193.127 15.8904 193.025 15.3774 192.826 14.9017C192.633 14.4402 192.358 14.0199 192.015 13.6624C191.669 13.3047 191.259 13.0184 190.808 12.8193C190.339 12.6132 189.833 12.507 189.322 12.507C188.811 12.507 188.306 12.6132 187.836 12.8193C186.929 13.2167 186.21 13.9617 185.83 14.8958C185.633 15.3741 185.532 15.8881 185.532 16.4074C185.532 16.9266 185.633 17.4406 185.83 17.9189C186.207 18.8519 186.923 19.5974 187.826 19.9974C188.296 20.2035 188.802 20.3097 189.313 20.3097C189.823 20.3097 190.329 20.2035 190.799 19.9974C191.249 19.8011 191.658 19.5183 192.005 19.164C192.348 18.8065 192.624 18.3862 192.816 17.9247C193.019 17.4472 193.123 16.9314 193.122 16.4103L193.124 16.4083Z" fill="#1A1C1E"/>
<path d="M29.9172 13.4172C29.9172 18.117 26.2044 21.927 21.6244 21.927C18.6354 21.927 16.0158 20.3043 14.5565 17.8706C14.1716 19.6163 12.6946 20.9444 10.8901 21.0802C13.2526 24.5585 17.1795 26.8345 21.6244 26.8345C28.8456 26.8345 34.6995 20.8274 34.6995 13.4172C34.6995 6.0071 28.8456 0 21.6244 0C14.4105 0 8.56113 5.99493 8.54929 13.3947C9.14794 13.0438 9.84298 12.843 10.5843 12.843C11.6507 12.843 12.6212 13.2585 13.3469 13.9385C13.3368 13.7661 13.3316 13.5923 13.3316 13.4172C13.3316 8.71742 17.0444 4.90747 21.6244 4.90747C26.2044 4.90747 29.9172 8.71742 29.9172 13.4172Z" fill="url(#paint0_linear_1_784)"/>
<path fill-rule="evenodd" clip-rule="evenodd" d="M38.1591 27.3564C42.8843 27.3283 46.7063 23.3889 46.7063 18.5335C46.7063 13.6607 42.8568 9.71051 38.1083 9.71051C34.1894 9.71051 30.4769 13.104 29.5102 16.0276C28.5436 18.9512 26.5806 20.5731 24.4735 21.4049C24.4774 21.4169 24.4814 21.4288 24.4855 21.4407C22.3444 22.1243 21.1092 22.0693 18.9364 21.4049H10.5843V27.3565H38.1083H38.1591V27.3564ZM42.0257 18.5335C42.0257 20.7537 40.2718 22.5535 38.1082 22.5535C35.9447 22.5535 34.1908 20.7537 34.1908 18.5335C34.1908 16.3134 35.9447 14.5136 38.1082 14.5136C40.2718 14.5136 42.0257 16.3134 42.0257 18.5335Z" fill="url(#paint1_linear_1_784)"/>
<path d="M10.6206 6.63971C8.62654 6.63971 6.67726 7.24723 5.01926 8.38545C3.36126 9.52367 2.06901 11.1415 1.30591 13.0342C0.54282 14.927 0.343161 17.0098 0.732182 19.0192C1.1212 21.0285 2.08144 22.8743 3.49145 24.323C4.90146 25.7716 6.69793 26.7582 8.65367 27.1579C10.6094 27.5576 12.6366 27.3524 14.4789 26.5684C16.3211 25.7844 17.8958 24.4567 19.0036 22.7532C20.1114 21.0498 20.7027 19.047 20.7027 16.9983C20.7027 15.638 20.442 14.291 19.9353 13.0342C19.4286 11.7775 18.686 10.6356 17.7498 9.67367C16.8135 8.71179 15.7021 7.94878 14.4789 7.42821C13.2557 6.90764 11.9446 6.63971 10.6206 6.63971ZM10.6206 21.0088C9.84857 21.0088 9.09388 20.7736 8.45197 20.3329C7.81005 19.8922 7.30973 19.2659 7.01429 18.5331C6.71885 17.8002 6.64155 16.9939 6.79216 16.2159C6.94278 15.438 7.31455 14.7234 7.86045 14.1625C8.40636 13.6016 9.10188 13.2196 9.85908 13.0649C10.6163 12.9102 11.4011 12.9896 12.1144 13.2931C12.8276 13.5967 13.4373 14.1107 13.8662 14.7702C14.2951 15.4297 14.524 16.2051 14.524 16.9983C14.5247 17.5254 14.4242 18.0475 14.2283 18.5346C14.0325 19.0218 13.745 19.4645 13.3825 19.8374C13.02 20.2104 12.5894 20.5062 12.1155 20.7081C11.6416 20.91 11.1336 21.0139 10.6206 21.0139V21.0088Z" fill="#6763F7"/>
<path d="M37.9176 4.37853C39.0639 4.37853 39.9932 3.42378 39.9932 2.24603C39.9932 1.06828 39.0639 0.113525 37.9176 0.113525C36.7713 0.113525 35.842 1.06828 35.842 2.24603C35.842 3.42378 36.7713 4.37853 37.9176 4.37853Z" fill="#FFAD4D"/>
</g>
<defs>
<linearGradient id="paint0_linear_1_784" x1="17.4017" y1="-3.81112" x2="34.0661" y2="13.0393" gradientUnits="userSpaceOnUse">
<stop stop-color="#6763F7"/>
<stop offset="1" stop-color="#4A40C6"/>
</linearGradient>
<linearGradient id="paint1_linear_1_784" x1="28.4418" y1="15.9754" x2="28.4418" y2="27.3565" gradientUnits="userSpaceOnUse">
<stop stop-color="#6864F9"/>
<stop offset="1" stop-color="#493FC5"/>
</linearGradient>
<clipPath id="clip0_1_784">
<rect width="194.923" height="28" fill="white" transform="translate(0.538452)"/>
</clipPath>
</defs>
</svg>
