<svg width="24" height="24" viewBox="0 0 24 24" fill="none" xmlns="http://www.w3.org/2000/svg">
<path fill-rule="evenodd" clip-rule="evenodd" d="M9.89729 0.515652C11.2082 -0.171884 12.7913 -0.171884 14.1022 0.515652L21.7022 4.50154C23.1183 5.2442 23.9998 6.674 23.9998 8.22823V15.7718C23.9998 17.326 23.1183 18.7558 21.7022 19.4985L14.1022 23.4843C12.7913 24.1719 11.2082 24.1719 9.89729 23.4843L2.2973 19.4985C0.881244 18.7558 -0.000244141 17.326 -0.000244141 15.7718L-0.000244141 8.22823C-0.000244141 6.674 0.881243 5.2442 2.29729 4.50154L9.89729 0.515652Z" fill="#2A5ADA"/>
<path d="M13.0413 12.52H10.1613V14.024H14.3213V14.952H10.1613V17H9.04125V14.952H7.60125V14.024H9.04125V12.52H7.60125V11.464H9.04125V5.8H13.0413C13.9693 5.8 14.7586 6.13067 15.4093 6.792C16.0706 7.44267 16.4013 8.232 16.4013 9.16C16.4013 10.0773 16.0706 10.8667 15.4093 11.528C14.7586 12.1893 13.9693 12.52 13.0413 12.52ZM10.1613 6.856V11.464H13.0413C13.6599 11.464 14.1879 11.24 14.6253 10.792C15.0626 10.3333 15.2812 9.78933 15.2812 9.16C15.2812 8.52 15.0626 7.976 14.6253 7.528C14.1879 7.08 13.6599 6.856 13.0413 6.856H10.1613Z" fill="white"/>
</svg>
