<svg width="40" height="24" viewBox="0 0 40 24" fill="none" xmlns="http://www.w3.org/2000/svg">
<rect x="0.5" y="0.5" width="39" height="23" rx="5.5" fill="white" stroke="#D5D8FF"/>
<path fill-rule="evenodd" clip-rule="evenodd" d="M23.0183 10.6837H24.3934C24.8294 10.6675 25.0946 10.6329 25.19 10.5788C25.3204 10.5049 25.4079 10.3569 25.4514 10.135C25.4793 9.98723 25.4932 9.76761 25.4932 9.47582C25.4932 9.11841 25.4656 8.85348 25.41 8.68041C25.3306 8.43803 25.1406 8.29039 24.8397 8.23677C24.7802 8.22867 24.6377 8.22437 24.412 8.22437H23.0183V10.6837ZM20.8121 14.8262V6.375H24.9217C25.4853 6.375 25.9154 6.42247 26.211 6.51731C26.8869 6.73569 27.3404 7.18282 27.5726 7.85858C27.6926 8.21322 27.7525 8.74719 27.7525 9.46017C27.7525 10.3174 27.686 10.9335 27.5544 11.3085C27.2909 12.0502 26.7483 12.4775 25.929 12.5882C25.8326 12.6048 25.4227 12.6197 24.6991 12.6316L24.3329 12.6442H23.0179V14.8262H20.8121ZM9.73626 9.07084H11.7883C11.8015 8.88414 11.8082 8.7445 11.8082 8.65109C11.8082 7.51232 11.3617 6.81933 10.4688 6.57193C10.1029 6.47074 9.48908 6.41968 8.62782 6.41968C8.08076 6.41968 7.58341 6.44029 7.13509 6.48058C6.59628 6.52528 6.15362 6.67487 5.8077 6.92965C5.57156 7.09564 5.40044 7.33833 5.29425 7.65801C5.18816 7.97759 5.13507 8.40246 5.13507 8.93233C5.13507 9.62808 5.2333 10.1482 5.42967 10.492C5.65309 10.8966 6.10082 11.163 6.77267 11.2926C7.0278 11.3376 7.48339 11.3841 8.13922 11.4324C8.95594 11.4891 9.41351 11.5338 9.51185 11.5659C9.77484 11.6471 9.90658 11.8734 9.90658 12.2455C9.90658 12.4116 9.89097 12.5474 9.85955 12.6522C9.80039 12.8226 9.6766 12.9458 9.48798 13.0223C9.38199 13.0631 9.1363 13.0834 8.75131 13.0834H7.99694C7.79609 13.0789 7.62527 13.0408 7.48379 12.9683C7.27966 12.8632 7.17734 12.6272 7.17734 12.2603L7.17715 12.0845H5.12512C5.12512 12.7722 5.17394 13.2634 5.27258 13.5584C5.44966 14.0883 5.81556 14.4401 6.37057 14.6138C6.82278 14.7556 7.62368 14.8261 8.77289 14.8261C9.46134 14.8261 9.9732 14.7936 10.3078 14.7286C11.1064 14.575 11.6196 14.209 11.8481 13.6296C11.9742 13.3139 12.0372 12.8156 12.0372 12.1352C12.0372 11.84 12.0234 11.5744 11.9958 11.3396C11.9486 10.9471 11.8005 10.6293 11.5522 10.3861C11.2367 10.0744 10.7283 9.88204 10.0269 9.80915C9.80596 9.78485 9.25204 9.74209 8.36513 9.6814L7.9513 9.65125C7.76964 9.63916 7.62398 9.59866 7.51371 9.52976C7.3598 9.43266 7.28304 9.23007 7.28304 8.92238C7.28304 8.5825 7.36974 8.36176 7.54295 8.26026C7.71625 8.15906 8.07141 8.10852 8.60714 8.10852C9.15877 8.10852 9.49584 8.19638 9.61794 8.37191C9.69668 8.49054 9.73626 8.72358 9.73626 9.07084ZM5.13318 16.5021L5.44081 16.4701C5.45931 16.577 5.49689 16.6555 5.55347 16.7057C5.61014 16.7558 5.6865 16.7808 5.78265 16.7808C5.88447 16.7808 5.96113 16.7586 6.01283 16.7141C6.06443 16.6695 6.09019 16.6174 6.09019 16.5577C6.09019 16.5195 6.07935 16.487 6.05777 16.46C6.0361 16.4332 5.99831 16.4099 5.94432 16.3899C5.90734 16.3769 5.82322 16.3535 5.69187 16.3199C5.52274 16.2768 5.40422 16.2237 5.33601 16.1607C5.24016 16.0721 5.19224 15.964 5.19224 15.8365C5.19224 15.7545 5.21481 15.6778 5.26005 15.6064C5.30519 15.5349 5.37042 15.4805 5.45543 15.4432C5.54054 15.4058 5.64325 15.3871 5.76356 15.3871C5.96003 15.3871 6.10789 15.4317 6.20721 15.5207C6.30654 15.6098 6.35865 15.7286 6.36362 15.8773L6.04674 15.8901C6.03321 15.807 6.00418 15.7474 5.95964 15.7109C5.91519 15.6745 5.84847 15.6562 5.75948 15.6562C5.66761 15.6562 5.59582 15.6757 5.54382 15.7147C5.51031 15.7396 5.49361 15.773 5.49361 15.8148C5.49361 15.8531 5.50932 15.8857 5.54064 15.913C5.58041 15.9474 5.67716 15.9834 5.83087 16.0206C5.98449 16.0579 6.09814 16.0966 6.17182 16.1368C6.2454 16.1769 6.30306 16.2317 6.34473 16.3012C6.38629 16.3709 6.40717 16.4569 6.40717 16.5592C6.40717 16.6521 6.38221 16.7389 6.3323 16.8199C6.28238 16.9009 6.21189 16.9611 6.12071 17.0005C6.02953 17.0398 5.91589 17.0596 5.77977 17.0596C5.5817 17.0596 5.42958 17.0122 5.32339 16.9172C5.2173 16.8223 5.15386 16.684 5.13318 16.5021ZM6.73572 15.8613H7.03709V17.0308H6.73572V15.8613ZM6.73584 15.416H7.03721V15.7012H6.73584V15.416ZM8.14211 17.031H8.44348V16.3028C8.44348 16.2123 8.43791 16.1428 8.42687 16.0943C8.41584 16.0457 8.39625 16.0023 8.36811 15.9641C8.33997 15.9259 8.29851 15.8944 8.24372 15.8698C8.18894 15.8452 8.12839 15.8328 8.06217 15.8328C7.91203 15.8328 7.78734 15.8996 7.68841 16.0334V15.8616H7.40881V17.031H7.71018V16.5002C7.71018 16.3692 7.71774 16.2795 7.73305 16.231C7.74827 16.1824 7.7764 16.1434 7.81757 16.114C7.85873 16.0846 7.90517 16.0698 7.95697 16.0698C7.99734 16.0698 8.03194 16.0802 8.06067 16.1007C8.08941 16.1213 8.11009 16.1503 8.12292 16.1874C8.13564 16.2245 8.14211 16.3063 8.14211 16.4329V17.031ZM9.05298 16.4207C9.05298 16.5452 9.07605 16.6363 9.12238 16.6941C9.16861 16.752 9.22569 16.7808 9.2936 16.7808C9.36628 16.7808 9.42773 16.7512 9.47794 16.6919C9.52805 16.6326 9.55321 16.5448 9.55321 16.4284C9.55321 16.307 9.52915 16.2168 9.48112 16.1578C9.433 16.099 9.37235 16.0695 9.29887 16.0695C9.22748 16.0695 9.16861 16.0985 9.12238 16.1562C9.07605 16.2141 9.05298 16.3022 9.05298 16.4207ZM8.78265 17.1077L9.12439 17.1461C9.13015 17.1897 9.14338 17.2196 9.16406 17.236C9.19269 17.2594 9.23773 17.2711 9.29918 17.2711C9.37783 17.2711 9.43679 17.259 9.47617 17.2348C9.50251 17.2186 9.5226 17.1926 9.53622 17.1566C9.54547 17.1307 9.55014 17.0835 9.55014 17.0144L9.55104 16.8436C9.46215 16.9684 9.34939 17.0308 9.21258 17.0308C9.05996 17.0308 8.93925 16.9643 8.85016 16.8311C8.78026 16.7259 8.74536 16.5949 8.74536 16.4383C8.74536 16.2418 8.7911 16.0918 8.88267 15.9881C8.97425 15.8844 9.08819 15.8325 9.22431 15.8325C9.36471 15.8325 9.48054 15.8962 9.57182 16.0233V15.8613H9.85151V16.9125C9.85151 17.0509 9.84047 17.1542 9.8183 17.2225C9.79623 17.291 9.76521 17.3446 9.72524 17.3836C9.68527 17.4225 9.63197 17.4531 9.56525 17.4751C9.49854 17.4972 9.41422 17.5082 9.31231 17.5082C9.11971 17.5082 8.9831 17.474 8.90246 17.4056C8.82182 17.3372 8.78155 17.2505 8.78155 17.1454C8.78155 17.135 8.78195 17.1225 8.78265 17.1077ZM10.5139 15.416H10.2125V17.0308H10.5139V15.416ZM11.5634 16.3482C11.5613 16.2572 11.5387 16.1881 11.4957 16.1406C11.4527 16.0932 11.4004 16.0695 11.3388 16.0695C11.2728 16.0695 11.2183 16.0946 11.1754 16.1445C11.1323 16.1944 11.1113 16.2624 11.112 16.3482H11.5634ZM11.5476 16.6624L11.8459 16.7136C11.8073 16.8263 11.7464 16.9122 11.6632 16.9712C11.5799 17.0302 11.4757 17.0597 11.3508 17.0597C11.1528 17.0597 11.0063 16.9929 10.9114 16.8595C10.8363 16.7527 10.7988 16.6179 10.7988 16.4549C10.7988 16.2605 10.848 16.108 10.9467 15.9978C11.0452 15.8876 11.1698 15.8325 11.3204 15.8325C11.4898 15.8325 11.6233 15.8903 11.7211 16.0059C11.819 16.1216 11.8657 16.2987 11.8614 16.5374H11.1065C11.1086 16.6295 11.133 16.701 11.1797 16.7523C11.2265 16.8034 11.2847 16.829 11.3545 16.829C11.402 16.829 11.4419 16.8159 11.4743 16.7895C11.5066 16.7633 11.5311 16.7208 11.5476 16.6624ZM12.8474 15.416V17.0308H14.0375V16.7585H13.1644V16.3196H13.9474V16.0473H13.1644V15.6884H14.0065V15.416H12.8474ZM15.1149 17.0308V16.8556C15.0735 16.9181 15.0191 16.9677 14.9516 17.0045C14.8841 17.0412 14.8129 17.0597 14.7379 17.0597C14.6614 17.0597 14.593 17.0423 14.5323 17.0078C14.4716 16.9732 14.4277 16.9246 14.4005 16.8622C14.3734 16.7997 14.3599 16.7132 14.3599 16.6029V15.8613H14.6612V16.3992C14.6612 16.5639 14.6667 16.6647 14.6778 16.7018C14.6889 16.7391 14.709 16.7684 14.7382 16.7901C14.7674 16.8118 14.8044 16.8225 14.8494 16.8225C14.9007 16.8225 14.9467 16.8082 14.9873 16.7791C15.0279 16.75 15.0557 16.7141 15.0707 16.671C15.0856 16.628 15.0932 16.5227 15.0932 16.3552V15.8613H15.3945V17.0308H15.1149ZM15.7555 17.031H16.0569V16.6694C16.0569 16.4703 16.0653 16.3394 16.0821 16.2769C16.0989 16.2145 16.122 16.1713 16.1513 16.1473C16.1807 16.1235 16.2163 16.1115 16.2586 16.1115C16.3022 16.1115 16.3495 16.1285 16.4002 16.1622L16.4919 15.8914C16.4284 15.8523 16.3624 15.8328 16.294 15.8328C16.2455 15.8328 16.2022 15.8457 16.164 15.8714C16.1259 15.8973 16.0829 15.9493 16.0351 16.0279V15.8616H15.7555V17.031ZM16.921 16.446C16.921 16.5625 16.9478 16.6516 17.0014 16.7136C17.055 16.7755 17.121 16.8064 17.1996 16.8064C17.2782 16.8064 17.3441 16.7755 17.3973 16.7136C17.4505 16.6516 17.4771 16.5617 17.4771 16.4438C17.4771 16.3289 17.4505 16.2403 17.3973 16.1785C17.3441 16.1165 17.2782 16.0856 17.1996 16.0856C17.121 16.0856 17.055 16.1165 17.0014 16.1785C16.9478 16.2403 16.921 16.3296 16.921 16.446ZM16.613 16.4294C16.613 16.3263 16.6376 16.2264 16.6868 16.1299C16.7359 16.0334 16.8055 15.9597 16.8957 15.9088C16.9858 15.8579 17.0865 15.8325 17.1977 15.8325C17.3694 15.8325 17.5101 15.8901 17.6199 16.0055C17.7295 16.1208 17.7844 16.2666 17.7844 16.4428C17.7844 16.6203 17.7289 16.7677 17.6182 16.8845C17.5074 17.0012 17.3679 17.0597 17.1998 17.0597C17.0958 17.0597 16.9965 17.0353 16.9022 16.9868C16.8077 16.9381 16.7359 16.8668 16.6868 16.7728C16.6376 16.6788 16.613 16.5645 16.613 16.4294ZM19.0829 16.1495V15.6881H19.2352C19.349 15.6881 19.4245 15.6918 19.4622 15.6992C19.5133 15.7088 19.5556 15.7328 19.589 15.7713C19.6224 15.8097 19.6391 15.8585 19.6391 15.9177C19.6391 15.9658 19.6272 16.0079 19.6034 16.0441C19.5796 16.0804 19.5467 16.107 19.5049 16.1241C19.4629 16.1411 19.3798 16.1495 19.2555 16.1495H19.0829ZM18.7661 15.416V17.0308H19.083V16.4221H19.289C19.4319 16.4221 19.5411 16.4144 19.6165 16.3989C19.672 16.3864 19.7266 16.361 19.7803 16.3224C19.834 16.2838 19.8783 16.2307 19.9131 16.1632C19.948 16.0955 19.9654 16.0122 19.9654 15.9131C19.9654 15.7845 19.9352 15.6796 19.8747 15.5985C19.8141 15.5173 19.739 15.4645 19.6493 15.4403C19.591 15.4242 19.4656 15.416 19.2734 15.416H18.7661ZM20.9123 16.4701C20.8738 16.4834 20.8131 16.4992 20.73 16.5177C20.6468 16.536 20.5924 16.5542 20.567 16.5718C20.5278 16.6006 20.5084 16.6371 20.5084 16.6813C20.5084 16.7249 20.5239 16.7624 20.5552 16.7942C20.5865 16.8259 20.6262 16.8418 20.6747 16.8418C20.7287 16.8418 20.7801 16.8233 20.8292 16.7865C20.8654 16.7584 20.8892 16.7242 20.9006 16.6836C20.9083 16.657 20.9123 16.6065 20.9123 16.5319V16.4701ZM20.5085 16.217L20.2382 16.1657C20.2688 16.0524 20.3215 15.9687 20.3962 15.9142C20.4711 15.8598 20.5823 15.8325 20.7297 15.8325C20.8637 15.8325 20.9635 15.8489 21.029 15.8815C21.0945 15.9144 21.1408 15.956 21.1674 16.0063C21.1942 16.0566 21.2076 16.1492 21.2076 16.2838L21.2045 16.6458C21.2045 16.7487 21.2093 16.8248 21.2188 16.8736C21.2285 16.9225 21.2465 16.9749 21.2728 17.0308H20.9745C20.9666 17.0106 20.957 16.9805 20.9456 16.9407C20.9406 16.9226 20.937 16.9107 20.9351 16.9049C20.8838 16.9564 20.829 16.9952 20.7706 17.021C20.7122 17.0468 20.6501 17.0597 20.5839 17.0597C20.4671 17.0597 20.3751 17.0269 20.3079 16.9615C20.2406 16.8959 20.207 16.8131 20.207 16.713C20.207 16.6469 20.2223 16.5878 20.2529 16.536C20.2836 16.4841 20.3265 16.4443 20.3817 16.4167C20.437 16.3892 20.5167 16.3649 20.6207 16.3443C20.761 16.3172 20.8582 16.2918 20.9124 16.2683V16.237C20.9124 16.1767 20.8981 16.1337 20.8694 16.108C20.8407 16.0824 20.7867 16.0696 20.7072 16.0696C20.6535 16.0696 20.6116 16.0805 20.5815 16.1023C20.5514 16.1241 20.527 16.1624 20.5085 16.217ZM21.7437 15.8613H21.4237L21.8561 17.034C21.8382 17.1001 21.8125 17.1545 21.7788 17.1974C21.7451 17.24 21.6933 17.2614 21.623 17.2614C21.5851 17.2614 21.5423 17.2567 21.4951 17.247L21.5231 17.4895C21.5787 17.502 21.6356 17.5082 21.6934 17.5082C21.7504 17.5082 21.8016 17.502 21.847 17.4894C21.8923 17.477 21.9303 17.4593 21.9614 17.4369C21.9924 17.4145 22.02 17.3852 22.0438 17.3492C22.0677 17.3131 22.0929 17.2609 22.1193 17.1924L22.592 15.8613H22.2813L22.0156 16.6916L21.7437 15.8613ZM22.827 15.8616H23.1035V16.0213C23.2029 15.8956 23.3211 15.8328 23.4583 15.8328C23.5311 15.8328 23.5943 15.8481 23.6479 15.879C23.7015 15.91 23.7455 15.9567 23.7797 16.0192C23.8296 15.9567 23.8836 15.91 23.9412 15.879C23.9991 15.8481 24.0606 15.8328 24.1263 15.8328C24.2098 15.8328 24.2804 15.8502 24.3382 15.8853C24.3959 15.92 24.4392 15.9714 24.4677 16.0392C24.4883 16.0891 24.4986 16.17 24.4986 16.2818V17.031H24.1973V16.3612C24.1973 16.2449 24.1869 16.17 24.1663 16.1361C24.1385 16.0919 24.0958 16.0698 24.0383 16.0698C23.9962 16.0698 23.9566 16.083 23.9197 16.1096C23.8827 16.1361 23.856 16.1749 23.8397 16.2261C23.8233 16.2771 23.8151 16.3579 23.8151 16.4682V17.031H23.5137V16.3889C23.5137 16.2747 23.5084 16.2012 23.4977 16.168C23.487 16.1349 23.4705 16.1103 23.4481 16.0941C23.4256 16.078 23.3953 16.0698 23.3568 16.0698C23.3106 16.0698 23.2689 16.0827 23.2319 16.1085C23.1949 16.1342 23.1685 16.1714 23.1524 16.2199C23.1364 16.2685 23.1284 16.349 23.1284 16.4616V17.031H22.827V15.8616ZM25.4689 16.1406C25.5121 16.1881 25.5346 16.2572 25.5368 16.3482H25.0853C25.0846 16.2624 25.1057 16.1944 25.1488 16.1445C25.1916 16.0946 25.2462 16.0695 25.312 16.0695C25.3737 16.0695 25.4261 16.0932 25.4689 16.1406ZM25.8194 16.7136L25.5211 16.6624C25.5046 16.7208 25.4802 16.7633 25.4476 16.7895C25.4153 16.8159 25.3755 16.829 25.328 16.829C25.2581 16.829 25.1999 16.8034 25.1532 16.7523C25.1065 16.701 25.082 16.6295 25.0798 16.5374H25.8349C25.8392 16.2987 25.7924 16.1216 25.6945 16.0059C25.5967 15.8903 25.4632 15.8325 25.2939 15.8325C25.1432 15.8325 25.0187 15.8876 24.9201 15.9978C24.8216 16.108 24.7722 16.2605 24.7722 16.4549C24.7722 16.6179 24.8097 16.7527 24.8848 16.8595C24.9798 16.9929 25.1263 17.0597 25.3241 17.0597C25.4492 17.0597 25.5533 17.0302 25.6367 16.9712C25.7199 16.9122 25.7807 16.8263 25.8194 16.7136ZM27.1759 17.031H26.8745V16.4329C26.8745 16.3063 26.8681 16.2245 26.8554 16.1874C26.8426 16.1503 26.8218 16.1213 26.7931 16.1007C26.7644 16.0802 26.7298 16.0698 26.6894 16.0698C26.6377 16.0698 26.5912 16.0846 26.5501 16.114C26.5089 16.1434 26.4808 16.1824 26.4655 16.231C26.4503 16.2795 26.4426 16.3692 26.4426 16.5002V17.031H26.1412V15.8616H26.4208V16.0334C26.5199 15.8996 26.6444 15.8328 26.7946 15.8328C26.8608 15.8328 26.9215 15.8452 26.9761 15.8698C27.0309 15.8944 27.0725 15.9259 27.1006 15.9641C27.1288 16.0023 27.1483 16.0457 27.1593 16.0943C27.1704 16.1428 27.1759 16.2123 27.1759 16.3028V17.031ZM28.0655 16.1081V15.8614H27.8603V15.4449L27.559 15.6275V15.8614H27.4222V16.1081H27.559V16.6193C27.559 16.7289 27.562 16.8018 27.5685 16.8379C27.5763 16.8886 27.5902 16.9289 27.6104 16.9587C27.6306 16.9885 27.6624 17.0129 27.7055 17.0316C27.7488 17.0503 27.7972 17.0598 27.8512 17.0598C27.939 17.0598 28.0176 17.0443 28.0871 17.0134L28.0608 16.7737C28.0089 16.7935 27.9695 16.8034 27.9421 16.8034C27.9225 16.8034 27.906 16.7982 27.8922 16.788C27.8786 16.7776 27.8699 16.7646 27.8661 16.7487C27.8622 16.7329 27.8603 16.677 27.8603 16.5813V16.1081H28.0655ZM28.2349 16.7011L28.5362 16.653C28.5491 16.7128 28.575 16.7581 28.6141 16.7891C28.6533 16.8202 28.7079 16.8356 28.7783 16.8356C28.856 16.8356 28.9144 16.8208 28.9534 16.7913C28.9798 16.7705 28.993 16.7429 28.993 16.708C28.993 16.6845 28.9858 16.6648 28.9714 16.6494C28.9563 16.6345 28.9227 16.6209 28.8704 16.6083C28.6269 16.5528 28.4725 16.5023 28.4075 16.4566C28.3172 16.3934 28.2722 16.3053 28.2722 16.1928C28.2722 16.0911 28.311 16.0057 28.3891 15.9366C28.4672 15.8674 28.5882 15.8328 28.7522 15.8328C28.9083 15.8328 29.0242 15.8587 29.1002 15.9105C29.1761 15.9624 29.2284 16.0389 29.2571 16.1403L28.9743 16.1948C28.9621 16.1494 28.9388 16.1144 28.9046 16.0902C28.8703 16.0659 28.8215 16.0538 28.7582 16.0538C28.6782 16.0538 28.6208 16.0652 28.5863 16.0883C28.5632 16.1045 28.5517 16.1255 28.5517 16.1513C28.5517 16.1736 28.5617 16.1924 28.5818 16.208C28.6089 16.2286 28.7029 16.2578 28.8635 16.2956C29.024 16.3333 29.1362 16.3794 29.1999 16.4341C29.2628 16.4895 29.2944 16.5667 29.2944 16.6656C29.2944 16.7734 29.2508 16.866 29.164 16.9435C29.077 17.0212 28.9486 17.0599 28.7783 17.0599C28.6239 17.0599 28.5016 17.0276 28.4115 16.9633C28.3215 16.8988 28.2626 16.8116 28.2349 16.7011ZM30.91 15.7939L31.1289 16.3931H30.6984L30.91 15.7939ZM31.3687 17.0308H31.71L31.0776 15.416H30.7443L30.1377 17.0308H30.4731L30.6021 16.6656H31.2333L31.3687 17.0308ZM32.2269 17.031H31.9255V15.8616H32.2051V16.0279C32.253 15.9493 32.2958 15.8973 32.3341 15.8714C32.3722 15.8457 32.4154 15.8328 32.464 15.8328C32.5324 15.8328 32.5984 15.8523 32.6619 15.8914L32.5702 16.1622C32.5194 16.1285 32.4722 16.1115 32.4286 16.1115C32.3863 16.1115 32.3506 16.1235 32.3213 16.1473C32.2919 16.1713 32.2689 16.2145 32.2522 16.2769C32.2353 16.3394 32.2269 16.4703 32.2269 16.6694V17.031ZM33.4651 16.1406C33.5081 16.1881 33.5307 16.2572 33.5329 16.3482H33.0814C33.0806 16.2624 33.1018 16.1944 33.1449 16.1445C33.1878 16.0946 33.2422 16.0695 33.3082 16.0695C33.3698 16.0695 33.4221 16.0932 33.4651 16.1406ZM33.8155 16.7136L33.5172 16.6624C33.5006 16.7208 33.4761 16.7633 33.4438 16.7895C33.4114 16.8159 33.3715 16.829 33.324 16.829C33.2543 16.829 33.1961 16.8034 33.1492 16.7523C33.1026 16.701 33.0781 16.6295 33.0759 16.5374H33.831C33.8353 16.2987 33.7885 16.1216 33.6907 16.0059C33.5928 15.8903 33.4592 15.8325 33.29 15.8325C33.1394 15.8325 33.0147 15.8876 32.9163 15.9978C32.8176 16.108 32.7683 16.2605 32.7683 16.4549C32.7683 16.6179 32.8058 16.7527 32.8809 16.8595C32.9758 16.9929 33.1224 17.0597 33.3203 17.0597C33.4453 17.0597 33.5495 17.0302 33.6327 16.9712C33.716 16.9122 33.7769 16.8263 33.8155 16.7136ZM34.7646 16.4701C34.7262 16.4834 34.6654 16.4992 34.5822 16.5177C34.4991 16.536 34.4448 16.5542 34.4193 16.5718C34.3801 16.6006 34.3607 16.6371 34.3607 16.6813C34.3607 16.7249 34.3762 16.7624 34.4075 16.7942C34.4388 16.8259 34.4785 16.8418 34.527 16.8418C34.581 16.8418 34.6324 16.8233 34.6815 16.7865C34.7177 16.7584 34.7415 16.7242 34.7529 16.6836C34.7606 16.657 34.7646 16.6065 34.7646 16.5319V16.4701ZM34.3607 16.217L34.0903 16.1657C34.121 16.0524 34.1737 15.9687 34.2484 15.9142C34.3233 15.8598 34.4345 15.8325 34.5819 15.8325C34.7159 15.8325 34.8157 15.8489 34.8812 15.8815C34.9467 15.9144 34.993 15.956 35.0196 16.0063C35.0464 16.0566 35.0598 16.1492 35.0598 16.2838L35.0567 16.6458C35.0567 16.7487 35.0615 16.8248 35.071 16.8736C35.0807 16.9225 35.0987 16.9749 35.1249 17.0308H34.8267C34.8188 17.0106 34.8093 16.9805 34.7978 16.9407C34.7947 16.9291 34.792 16.9201 34.79 16.9135L34.7872 16.9049C34.7359 16.9564 34.6813 16.9952 34.6229 17.021C34.5645 17.0468 34.5023 17.0597 34.4361 17.0597C34.3193 17.0597 34.2273 17.0269 34.16 16.9615C34.0929 16.8959 34.0593 16.8131 34.0593 16.713C34.0593 16.6469 34.0745 16.5878 34.1052 16.536C34.1358 16.4841 34.1787 16.4443 34.2339 16.4167C34.2892 16.3892 34.3688 16.3649 34.4729 16.3443C34.6131 16.3172 34.7104 16.2918 34.7646 16.2683V16.237C34.7646 16.1767 34.7503 16.1337 34.7216 16.108C34.693 16.0824 34.6389 16.0696 34.5594 16.0696C34.5057 16.0696 34.4638 16.0805 34.4337 16.1023C34.4036 16.1241 34.3792 16.1624 34.3607 16.217ZM30.9889 8.05554L32.0224 11.719H29.986L30.9889 8.05554ZM29.5117 13.3656H32.4609L32.8817 14.8262H35.1158L32.6231 6.375H29.2958L26.8334 14.8262H29.1155L29.5117 13.3656Z" fill="#1E46D1"/>
<path fill-rule="evenodd" clip-rule="evenodd" d="M17.768 7.56383C18.6778 7.56383 19.4897 7.99599 20.0234 8.67288L20.4989 7.62166C19.7553 6.89689 18.7432 6.45007 17.6269 6.45007C15.8889 6.45007 14.4021 7.53246 13.7919 9.06464H12.8647L12.3173 10.2749H13.51C13.5011 10.3871 13.4953 10.4995 13.4953 10.6141C13.4953 10.7529 13.5023 10.8899 13.5156 11.0254H12.9161L12.3688 12.236H13.8203C14.4479 13.7294 15.9161 14.7779 17.6269 14.7779C18.489 14.7779 19.289 14.5115 19.9514 14.0565V12.5728C19.418 13.1991 18.6378 13.5948 17.768 13.5948C16.7512 13.5948 15.8568 13.0542 15.336 12.236H18.3757L18.923 11.0254H14.8888C14.868 10.8797 14.8569 10.7308 14.8569 10.5792C14.8569 10.4766 14.8621 10.3751 14.8716 10.2749H19.2623L19.8097 9.06464H15.2513C15.7554 8.16752 16.6935 7.56383 17.768 7.56383Z" fill="#F7AB26"/>
</svg>
