<svg width="24" height="24" viewBox="0 0 24 24" fill="none" xmlns="http://www.w3.org/2000/svg">
<path fill-rule="evenodd" clip-rule="evenodd" d="M9.89729 0.515652C11.2082 -0.171884 12.7913 -0.171884 14.1022 0.515652L21.7022 4.50154C23.1183 5.2442 23.9998 6.674 23.9998 8.22823V15.7718C23.9998 17.326 23.1183 18.7558 21.7022 19.4985L14.1022 23.4843C12.7913 24.1719 11.2082 24.1719 9.89729 23.4843L2.2973 19.4985C0.881244 18.7558 -0.000244141 17.326 -0.000244141 15.7718L-0.000244141 8.22823C-0.000244141 6.674 0.881243 5.2442 2.29729 4.50154L9.89729 0.515652Z" fill="#2A5ADA"/>
<path d="M12.2494 17.16C11.4174 17.16 10.7134 17.048 10.1374 16.824C9.56138 16.6 9.11871 16.2693 8.80938 15.832C8.51071 15.384 8.36138 14.8187 8.36138 14.136C8.36138 13.9333 8.37738 13.7413 8.40938 13.56C8.44138 13.368 8.48404 13.192 8.53738 13.032H7.78538V12.008H9.12938C9.34271 11.7947 9.62538 11.6027 9.97738 11.432C10.34 11.2507 10.7134 11.0907 11.0974 10.952C11.492 10.8133 11.8387 10.696 12.1374 10.6C12.436 10.4933 12.628 10.4187 12.7134 10.376H7.78538V9.352H13.8974C13.9827 9.20267 14.0414 9.048 14.0734 8.888C14.116 8.728 14.1374 8.52533 14.1374 8.28C14.1374 7.94933 14.0627 7.66667 13.9134 7.432C13.764 7.18667 13.5347 7 13.2254 6.872C12.916 6.744 12.516 6.68 12.0254 6.68C11.6734 6.68 11.332 6.712 11.0014 6.776C10.6814 6.84 10.3774 6.92533 10.0894 7.032C9.81204 7.128 9.55071 7.23467 9.30538 7.352L8.90538 6.088C9.31071 5.896 9.80671 5.736 10.3934 5.608C10.98 5.48 11.5507 5.416 12.1054 5.416C12.8307 5.416 13.4494 5.51733 13.9614 5.72C14.484 5.912 14.884 6.20533 15.1614 6.6C15.4494 6.99467 15.5934 7.496 15.5934 8.104C15.5934 8.328 15.5774 8.552 15.5454 8.776C15.5134 8.98933 15.4547 9.18133 15.3694 9.352H16.2494V10.376H14.8574C14.6867 10.5467 14.42 10.7227 14.0574 10.904C13.6947 11.0747 13.316 11.2347 12.9214 11.384C12.5267 11.5333 12.1694 11.6613 11.8494 11.768C11.5294 11.8747 11.3214 11.9547 11.2254 12.008H16.2494V13.032H10.0254C9.94004 13.192 9.88138 13.3413 9.84938 13.48C9.81738 13.6187 9.80138 13.8107 9.80138 14.056C9.80138 14.472 9.89738 14.8187 10.0894 15.096C10.2814 15.3627 10.5694 15.5653 10.9534 15.704C11.3374 15.8427 11.812 15.912 12.3774 15.912C12.9854 15.912 13.572 15.8373 14.1374 15.688C14.7134 15.528 15.1934 15.3627 15.5774 15.192V16.488C15.2147 16.6587 14.7294 16.8133 14.1214 16.952C13.5134 17.0907 12.8894 17.16 12.2494 17.16Z" fill="white"/>
</svg>
