<svg width="24" height="24" viewBox="0 0 24 24" fill="none" xmlns="http://www.w3.org/2000/svg">
<path fill-rule="evenodd" clip-rule="evenodd" d="M9.89729 0.515652C11.2082 -0.171884 12.7913 -0.171884 14.1022 0.515652L21.7022 4.50154C23.1183 5.2442 23.9998 6.674 23.9998 8.22823V15.7718C23.9998 17.326 23.1183 18.7558 21.7022 19.4985L14.1022 23.4843C12.7913 24.1719 11.2082 24.1719 9.89729 23.4843L2.2973 19.4985C0.881244 18.7558 -0.000244141 17.326 -0.000244141 15.7718L-0.000244141 8.22823C-0.000244141 6.674 0.881243 5.2442 2.29729 4.50154L9.89729 0.515652Z" fill="#2A5ADA"/>
<path d="M15.7616 14.088C15.7616 14.92 15.4789 15.6187 14.9136 16.184C14.3482 16.7387 13.6176 17.064 12.7216 17.16V18.6H11.7616V17.176C10.8976 17.1227 10.1616 16.8933 9.55356 16.488C8.94556 16.0827 8.50823 15.5387 8.24156 14.856L9.20156 14.296C9.59623 15.384 10.4496 15.9813 11.7616 16.088V11.672C11.2816 11.5013 10.8922 11.3467 10.5936 11.208C10.3056 11.0693 10.0069 10.8827 9.69756 10.648C9.38823 10.4133 9.1589 10.1253 9.00956 9.784C8.8709 9.44267 8.80156 9.04267 8.80156 8.584C8.80156 7.752 9.0789 7.07467 9.63356 6.552C10.1989 6.01867 10.9082 5.70933 11.7616 5.624V4.2H12.7216V5.64C13.3509 5.71467 13.9109 5.928 14.4016 6.28C14.8922 6.632 15.2656 7.10667 15.5216 7.704L14.5776 8.232C14.2362 7.37867 13.6176 6.88267 12.7216 6.744V10.904C13.1909 11.064 13.5802 11.2187 13.8896 11.368C14.1989 11.5173 14.5082 11.7147 14.8176 11.96C15.1376 12.2053 15.3722 12.504 15.5216 12.856C15.6816 13.208 15.7616 13.6187 15.7616 14.088ZM9.92156 8.584C9.92156 9.07467 10.0709 9.464 10.3696 9.752C10.6682 10.04 11.1322 10.3067 11.7616 10.552V6.728C11.2069 6.792 10.7589 6.98933 10.4176 7.32C10.0869 7.64 9.92156 8.06133 9.92156 8.584ZM12.7216 16.072C13.3189 15.9867 13.7882 15.768 14.1296 15.416C14.4709 15.064 14.6416 14.6213 14.6416 14.088C14.6416 13.5653 14.4816 13.1547 14.1616 12.856C13.8416 12.5467 13.3616 12.264 12.7216 12.008V16.072Z" fill="white"/>
</svg>
